# xmcd CD database file
#
# Track frame offsets:
#	150
#	20716
#	43245
#	58709
#	75561
#	99742
#	119787
#	135581
#
# Disc length: 2017 seconds
#
# Revision: 0
# Processed by: cddbd v1.5.2PL0 Copyright (c) Steve Scherf et al.
# Submitted via: CDex 1.51
#
DISCID=7107df08
DTITLE=Oscar D'Leon y su Salsa Mayor - El Oscar De La Salsa
DYEAR=1977
DGENRE=Salsa
TTITLE0=El Baile Del Suavecito
TTITLE1=Sientate Ahi
TTITLE2=Contestame
TTITLE3=El Que Siembra Su Maiz
TTITLE4=Juanita Morel
TTITLE5=Capullito De Azucena
TTITLE6=Longina
TTITLE7=Por Tus Cuentos
EXTD=YEAR: 1977
EXTT0=
EXTT1=
EXTT2=
EXTT3=
EXTT4=
EXTT5=
EXTT6=
EXTT7=
PLAYORDER=
